<mxfile host="app.diagrams.net" modified="2023-08-21T04:20:40.854Z" agent="Mozilla/5.0 (Windows NT 10.0; Win64; x64; rv:109.0) Gecko/20100101 Firefox/116.0" etag="lHu5rtjVV-ZyfEZ08s86" version="21.6.6" type="github">
  <diagram name="Page-1" id="3Eebu5w2bu5OHw1vptLm">
    <mxGraphModel dx="1674" dy="774" grid="1" gridSize="10" guides="1" tooltips="1" connect="1" arrows="1" fold="1" page="1" pageScale="1" pageWidth="1100" pageHeight="850" math="0" shadow="0">
      <root>
        <mxCell id="0" />
        <mxCell id="1" parent="0" />
        <mxCell id="YwC9qDp08B_DBo2DmQjM-1" style="edgeStyle=orthogonalEdgeStyle;rounded=0;orthogonalLoop=1;jettySize=auto;html=1;exitX=0.5;exitY=1;exitDx=0;exitDy=0;entryX=0.5;entryY=0;entryDx=0;entryDy=0;" edge="1" parent="1" source="YwC9qDp08B_DBo2DmQjM-3" target="YwC9qDp08B_DBo2DmQjM-14">
          <mxGeometry relative="1" as="geometry" />
        </mxCell>
        <mxCell id="YwC9qDp08B_DBo2DmQjM-2" value="info_user" style="edgeLabel;html=1;align=center;verticalAlign=middle;resizable=0;points=[];" vertex="1" connectable="0" parent="YwC9qDp08B_DBo2DmQjM-1">
          <mxGeometry x="-0.3667" y="-1" relative="1" as="geometry">
            <mxPoint as="offset" />
          </mxGeometry>
        </mxCell>
        <mxCell id="YwC9qDp08B_DBo2DmQjM-3" value="1.1 Memasukan user dan password" style="ellipse;whiteSpace=wrap;html=1;aspect=fixed;" vertex="1" parent="1">
          <mxGeometry x="441" y="270" width="150" height="150" as="geometry" />
        </mxCell>
        <mxCell id="YwC9qDp08B_DBo2DmQjM-4" style="edgeStyle=orthogonalEdgeStyle;rounded=0;orthogonalLoop=1;jettySize=auto;html=1;exitX=0;exitY=0.5;exitDx=0;exitDy=0;entryX=0.5;entryY=0;entryDx=0;entryDy=0;" edge="1" parent="1" source="YwC9qDp08B_DBo2DmQjM-5" target="YwC9qDp08B_DBo2DmQjM-3">
          <mxGeometry relative="1" as="geometry" />
        </mxCell>
        <mxCell id="YwC9qDp08B_DBo2DmQjM-5" value="Agent" style="rounded=0;whiteSpace=wrap;html=1;" vertex="1" parent="1">
          <mxGeometry x="660" y="130" width="120" height="60" as="geometry" />
        </mxCell>
        <mxCell id="YwC9qDp08B_DBo2DmQjM-6" style="edgeStyle=orthogonalEdgeStyle;rounded=0;orthogonalLoop=1;jettySize=auto;html=1;exitX=1;exitY=0.5;exitDx=0;exitDy=0;entryX=0;entryY=0.5;entryDx=0;entryDy=0;" edge="1" parent="1" source="YwC9qDp08B_DBo2DmQjM-8" target="YwC9qDp08B_DBo2DmQjM-14">
          <mxGeometry relative="1" as="geometry" />
        </mxCell>
        <mxCell id="YwC9qDp08B_DBo2DmQjM-7" value="&lt;div&gt;info_user&lt;/div&gt;&lt;div&gt;role&lt;br&gt;&lt;/div&gt;" style="edgeLabel;html=1;align=center;verticalAlign=middle;resizable=0;points=[];" vertex="1" connectable="0" parent="YwC9qDp08B_DBo2DmQjM-6">
          <mxGeometry x="-0.1076" y="-1" relative="1" as="geometry">
            <mxPoint as="offset" />
          </mxGeometry>
        </mxCell>
        <mxCell id="YwC9qDp08B_DBo2DmQjM-8" value="Data User" style="shape=partialRectangle;whiteSpace=wrap;html=1;left=0;right=0;fillColor=none;" vertex="1" parent="1">
          <mxGeometry x="245" y="525" width="120" height="60" as="geometry" />
        </mxCell>
        <mxCell id="YwC9qDp08B_DBo2DmQjM-9" style="edgeStyle=orthogonalEdgeStyle;rounded=0;orthogonalLoop=1;jettySize=auto;html=1;exitX=0;exitY=0.5;exitDx=0;exitDy=0;entryX=0.5;entryY=0;entryDx=0;entryDy=0;" edge="1" parent="1" source="YwC9qDp08B_DBo2DmQjM-10" target="YwC9qDp08B_DBo2DmQjM-3">
          <mxGeometry relative="1" as="geometry">
            <mxPoint x="510" y="270" as="targetPoint" />
            <Array as="points">
              <mxPoint x="516" y="250" />
            </Array>
          </mxGeometry>
        </mxCell>
        <mxCell id="YwC9qDp08B_DBo2DmQjM-10" value="Customer" style="rounded=0;whiteSpace=wrap;html=1;" vertex="1" parent="1">
          <mxGeometry x="660" y="220" width="120" height="60" as="geometry" />
        </mxCell>
        <mxCell id="YwC9qDp08B_DBo2DmQjM-11" style="edgeStyle=orthogonalEdgeStyle;rounded=0;orthogonalLoop=1;jettySize=auto;html=1;exitX=1;exitY=0.5;exitDx=0;exitDy=0;entryX=0.5;entryY=0;entryDx=0;entryDy=0;" edge="1" parent="1" source="YwC9qDp08B_DBo2DmQjM-13" target="YwC9qDp08B_DBo2DmQjM-3">
          <mxGeometry relative="1" as="geometry" />
        </mxCell>
        <mxCell id="YwC9qDp08B_DBo2DmQjM-12" value="info_user" style="edgeLabel;html=1;align=center;verticalAlign=middle;resizable=0;points=[];" vertex="1" connectable="0" parent="YwC9qDp08B_DBo2DmQjM-11">
          <mxGeometry x="0.3227" y="3" relative="1" as="geometry">
            <mxPoint as="offset" />
          </mxGeometry>
        </mxCell>
        <mxCell id="YwC9qDp08B_DBo2DmQjM-13" value="Admin" style="rounded=0;whiteSpace=wrap;html=1;" vertex="1" parent="1">
          <mxGeometry x="245" y="130" width="120" height="60" as="geometry" />
        </mxCell>
        <mxCell id="YwC9qDp08B_DBo2DmQjM-14" value="1.2 Verifikasi User" style="ellipse;whiteSpace=wrap;html=1;aspect=fixed;" vertex="1" parent="1">
          <mxGeometry x="441" y="480" width="150" height="150" as="geometry" />
        </mxCell>
      </root>
    </mxGraphModel>
  </diagram>
</mxfile>
